<?xml version="1.0" ?>
<!-- Uploaded to: SVG Repo, www.svgrepo.com, Generator: SVG Repo Mixer Tools -->
<svg width="800px" height="800px" viewBox="0 0 512 512" id="Layer_1" version="1.1" xml:space="preserve" xmlns="http://www.w3.org/2000/svg" xmlns:xlink="http://www.w3.org/1999/xlink">
<style type="text/css">
	.st0{fill:#333333;}
</style>
<g>
<path class="st0" d="M46.3,444.7h419.3c3.9,0,7-3.1,7-7V213c0-3.9-3.1-7-7-7h-29L399.3,78.8c-1.2-4.1-3.9-7.5-7.7-9.5   c-3.8-2-8.1-2.5-12.2-1.3l-304,89.2c-8.5,2.5-13.3,11.4-10.9,19.9l8.5,28.9H46.3c-3.9,0-7,3.1-7,7v224.7   C39.3,441.5,42.5,444.7,46.3,444.7z M78.1,173.1c-0.3-1.1,0.3-2.2,1.4-2.5l304-89.2c0.7-0.2,1.2,0,1.5,0.2c0.3,0.2,0.8,0.5,1,1.2   L422.1,206H87.7L78.1,173.1z M53.3,220h29.1h349h27.2v210.7H53.3V220z"/>
<path class="st0" d="M431.7,282h-8c-10.3,0-19.5-5.7-24.1-14.9c-1.9-3.8-2.9-7.8-2.9-12.1v-8c0-3.9-3.1-7-7-7H122.3   c-3.9,0-7,3.1-7,7v8c0,9.9-5.4,19-14.1,23.7c-3.9,2.1-8.4,3.3-12.9,3.3h-8c-3.9,0-7,3.1-7,7v72.7c0,3.9,3.1,7,7,7h8   c14.9,0,27,12.1,27,27v8c0,3.9,3.1,7,7,7h267.3c3.9,0,7-3.1,7-7v-8c0-14.9,12.1-27,27-27h8c3.9,0,7-3.1,7-7V289   C438.7,285.1,435.5,282,431.7,282z M424.7,354.7h-1c-22.6,0-41,18.4-41,41v1H129.3v-1c0-22.6-18.4-41-41-41h-1V296h1   c6.8,0,13.6-1.7,19.6-5c13.2-7.2,21.4-21,21.4-36v-1h253.3v1c0,6.3,1.5,12.7,4.3,18.3c7,14,21.1,22.7,36.7,22.7h1V354.7z"/>
<path class="st0" d="M156.1,299.1c-14.5,0-26.3,11.8-26.3,26.3c0,9.9,5.4,18.8,14.2,23.3c3.7,1.9,7.9,3,12.1,3   c9.2,0,17.8-4.9,22.5-12.8c0.1-0.1,0.1-0.2,0.2-0.3c2.3-4,3.5-8.5,3.5-13.1C182.3,310.9,170.6,299.1,156.1,299.1z M166.8,331.2   c-0.1,0.1-0.1,0.2-0.2,0.3c-2.2,3.8-6.2,6.1-10.6,6.1c-2,0-3.9-0.5-5.6-1.4c-4.1-2.1-6.6-6.3-6.6-10.9c0-6.8,5.5-12.3,12.3-12.3   s12.3,5.5,12.3,12.3C168.3,327.4,167.8,329.4,166.8,331.2z"/>
<path class="st0" d="M357.5,299.1c-14.5,0-26.3,11.8-26.3,26.3s11.8,26.3,26.3,26.3s26.3-11.8,26.3-26.3S372,299.1,357.5,299.1z    M357.5,337.6c-6.8,0-12.3-5.5-12.3-12.3s5.5-12.3,12.3-12.3s12.3,5.5,12.3,12.3S364.3,337.6,357.5,337.6z"/>
<path class="st0" d="M261.7,317.1v-22.2c3.9,0.9,7.9,2.7,11.9,5.1c1.2,0.7,2.3,1,3.5,1c3.6,0,6.5-2.8,6.5-6.4   c0-2.8-1.6-4.5-3.5-5.6c-5.3-3.4-11.1-5.6-18-6.4v-2.5c0-2.8-2.2-5-5-5c-2.8,0-5.1,2.2-5.1,5v2.4c-14.5,1.2-24.3,9.7-24.3,22.1   c0,5.3,1.3,9.5,4,12.9c3.9,5,10.8,8.3,20.8,10.9v22.8c-6.4-1.2-11.7-3.8-17.2-7.8c-1-0.8-2.4-1.3-3.8-1.3c-3.6,0-6.4,2.8-6.4,6.4   c0,2.4,1.2,4.3,3.1,5.6c7.1,5,15.1,8.1,23.8,9v7.2c0,2.8,2.3,5,5.1,5c2.8,0,5-2.2,5-5v-7c14.7-1.4,24.7-9.8,24.7-22.6   C286.8,328.6,279.3,321.5,261.7,317.1z M252.5,314.7c-1.8-0.6-3.3-1.2-4.6-1.8c0,0,0,0,0,0c-5.1-2.4-6.5-5.1-6.5-9   c0-5.1,3.7-9,11.1-9.7V314.7z M261.7,351.9v-21.1c8.9,2.8,11.5,5.9,11.5,11C273.1,347.3,269.1,351,261.7,351.9z"/>
</g>
</svg>