<?xml version="1.0" encoding="iso-8859-1"?>
<!-- Uploaded to: SVG Repo, www.svgrepo.com, Generator: SVG Repo Mixer Tools -->
<svg height="800px" width="800px" version="1.1" id="Layer_1" xmlns="http://www.w3.org/2000/svg" xmlns:xlink="http://www.w3.org/1999/xlink" 
	 viewBox="0 0 512.001 512.001" xml:space="preserve">
<path style="fill:#FFE637;" d="M484.679,256l17.721,86.325c0,22.467-18.385,40.847-40.859,40.847h-7.871H337.151h-91.36H127.379
	h-8.959c-22.472,0-40.855-18.426-40.855-40.887l4.874-48.115L85.978,256H484.679L484.679,256z"/>
<path style="fill:#86BAA8;" d="M502.401,342.325c0,22.467-18.385,40.848-40.859,40.848h-7.871H337.151h-91.36H127.379h-8.959
	c-22.472,0-40.855-18.428-40.855-40.888l4.874-48.115l15.605-168.317l1.224-12.95c2.115-22.357,18.399-40.847,40.863-40.847h49.374
	c13.919,0,4.149-0.03,14.711,0.143c46.809,0.764,73.594,3.675,119.401,34.519l123.013,82.834
	c18.632,12.548,37.763,23.417,40.859,45.669L502.401,342.325z"/>
<path style="fill:#99CEBA;" d="M446.63,189.553l-123.013-82.834C277.81,75.876,251.025,72.965,204.216,72.2
	c-10.562-0.172-0.791-0.143-14.711-0.143h-49.374c-16.877,0-30.264,10.437-36.776,25.11c25.5,0.619,116.988,9.003,170.847,41.845
	c55.45,33.814,153.554,90.698,187.677,95.313c7.195,0.974,16.144,1.672,25.787,2.17l-0.177-1.272
	C484.394,212.97,465.261,202.103,446.63,189.553z"/>
<path style="fill:#729800;" d="M502.401,342.325c0,22.467-18.385,40.848-40.859,40.848h-7.871H337.151h-91.36H127.379h-8.959
	c-22.472,0-40.855-18.428-40.855-40.888l4.874-48.115l15.605-168.317l1.224-12.95c2.115-22.357,18.399-40.847,40.863-40.847h49.374
	c2.051,0,3.578-0.001,4.741-0.002l19.625,134.299c3.638,24.904,23.505,45.291,44.148,45.291h231.755L502.401,342.325z"/>
<path style="fill:#A5CD27;" d="M194.247,72.056c-1.164,0.001-2.69,0.002-4.741,0.002h-49.374c-16.877,0-30.264,10.437-36.776,25.11
	c25.52,0.619,58.151,3.756,96.59,13.884L194.247,72.056z"/>
<path style="fill:#5D7D00;" d="M499.234,319.438l3.167,22.75c0,22.475-18.393,40.861-40.876,40.861h-7.875H337.082h-91.399H127.221
	h-8.962c-22.481,0-40.873-18.434-40.873-40.904l2.531-24.982c0,0,3.845,23.643,20.836,23.643s367.509,0,382.978,0
	S499.234,319.438,499.234,319.438z"/>
<path style="fill:#004646;" d="M242.391,383.172c0,31.353-25.423,56.774-56.788,56.774c-31.367,0-56.794-25.419-56.794-56.774
	c0-31.354,25.427-56.774,56.794-56.774C216.968,326.399,242.391,351.817,242.391,383.172z M394.359,326.399
	c-31.366,0-56.794,25.418-56.794,56.774c0,31.353,25.428,56.774,56.794,56.774s56.789-25.419,56.789-56.774
	C451.147,351.817,425.724,326.399,394.359,326.399z"/>
<path style="fill:#C5E02C;" d="M124.797,241.414H95.203c-16.277,0-29.593-13.311-29.593-29.582v-15.157
	c0-16.272,13.317-29.585,29.593-29.585h29.594V241.414L124.797,241.414z"/>
<path d="M393.908,449.904c-33.425,0-61.207-24.621-66.161-56.679h-76.02c-4.955,32.058-32.735,56.679-66.157,56.679
	c-33.425,0-61.207-24.621-66.161-56.679h-0.886c-28.144,0-51.04-22.916-51.04-51.085c0-0.346,0.018-0.69,0.052-1.035l3.721-36.735
	c-7.978-0.002-17.296-0.009-17.683-0.021C24.035,303.517,0,278.788,0,249.224c0-30.41,24.739-55.15,55.148-55.15
	c0.165,0,0.329,0.003,0.493,0.011c1.388-20.697,18.668-37.112,39.712-37.112h29.535c5.671,0,10.267,4.596,10.267,10.267v3.274
	h22.336c5.671,0,10.267,4.596,10.267,10.267c0,5.671-4.596,10.267-10.267,10.267h-22.336v26.583h22.336
	c5.671,0,10.267,4.596,10.267,10.267c0,5.671-4.596,10.267-10.267,10.267h-22.336v3.276c0,5.671-4.596,10.267-10.267,10.267H95.351
	c-21.042,0-38.323-16.414-39.712-37.11c-0.164,0.007-0.327,0.011-0.493,0.011c-19.086-0.001-34.614,15.527-34.614,34.614
	c0,18.528,15.037,34.031,33.537,34.6c1.799,0.011,26.048,0.018,28.402,0.018c0.228-0.005,0.455,0.002,0.686,0.015
	c1.182,0.062,2.31,0.323,3.353,0.752c1.419,0.582,2.67,1.469,3.679,2.574c0.003,0.002,0.006,0.006,0.009,0.009
	c0.002,0.003,0.005,0.006,0.007,0.008c1.03,1.132,1.811,2.495,2.256,4.001c0.322,1.088,0.467,2.247,0.404,3.437
	c0,0.003,0,0.006,0,0.009c0,0.002,0,0.003-0.001,0.006c-0.01,0.211-0.027,0.42-0.051,0.629l-4.796,47.347
	c0.26,16.624,13.844,30.069,30.503,30.069h0.886c4.954-32.058,32.736-56.678,66.161-56.678c33.423,0,61.202,24.62,66.156,56.678
	h76.021c4.954-32.058,32.736-56.678,66.161-56.678c33.423,0,61.202,24.62,66.157,56.678h0.89c16.604,0,30.152-13.332,30.505-29.851
	l-5.44-39.082c-0.768,0.183-1.569,0.279-2.392,0.279h-16.472c-5.671,0-10.267-4.596-10.267-10.267
	c0-5.671,4.596-10.267,10.267-10.267h16.045l-3.005-21.586H254.655c-23.519,0-45.902-22.232-49.895-49.56L185.81,82.632h-45.621
	c-18.108,0-29.08,15.836-30.559,31.479l-1.221,12.926c-0.534,5.646-5.531,9.798-11.187,9.256c-5.644-0.533-9.789-5.541-9.255-11.186
	l1.221-12.928c2.745-29.018,24.194-50.08,51.002-50.08h54.338c0.119-0.001,0.232-0.001,0.341,0l5.3-0.001
	c3.476-0.002,3.543-0.002,4.351,0.026c0.524,0.019,1.502,0.054,5.486,0.119c48.553,0.793,71.395,4.12,119.04,36.212l122.766,82.695
	c1.538,1.036,3.077,2.06,4.612,3.079c17.404,11.569,37.132,24.681,40.598,49.616l14.882,106.922
	c0.066,0.469,0.098,0.941,0.098,1.415c0,28.146-22.898,51.044-51.045,51.044h-0.89C455.11,425.283,427.329,449.904,393.908,449.904z
	 M393.908,336.547c-25.594,0-46.415,20.82-46.415,46.411c0,25.593,20.821,46.412,46.415,46.412c25.59,0,46.41-20.82,46.41-46.412
	C440.317,357.367,419.497,336.547,393.908,336.547z M185.569,336.547c-25.594,0-46.415,20.82-46.415,46.411
	c0,25.593,20.821,46.412,46.415,46.412c25.59,0,46.41-20.82,46.41-46.412C231.978,357.367,211.159,336.547,185.569,336.547z
	 M206.573,82.718l18.505,126.674c2.535,17.343,16.08,31.994,29.578,31.994H477.34l-0.656-4.714
	c-2.194-15.78-15.834-24.845-31.627-35.343c-1.57-1.044-3.146-2.091-4.718-3.151l-122.766-82.694
	c-43.437-29.258-61.947-31.961-107.903-32.712C208.361,82.752,207.355,82.733,206.573,82.718z M95.351,177.506
	c-10.624,0-19.268,8.643-19.268,19.268v15.132c0,10.624,8.643,19.267,19.268,19.267h19.268v-53.666H95.351V177.506z
	 M393.942,393.225c-5.671,0-10.3-4.596-10.3-10.267s4.563-10.267,10.234-10.267h0.067c5.671,0,10.267,4.596,10.267,10.267
	S399.613,393.225,393.942,393.225z M185.604,393.225c-5.671,0-10.3-4.596-10.3-10.267s4.563-10.267,10.234-10.267h0.067
	c5.671,0,10.267,4.596,10.267,10.267S191.274,393.225,185.604,393.225z"/>
</svg>