<?xml version="1.0" encoding="iso-8859-1"?>
<!-- Uploaded to: SVG Repo, www.svgrepo.com, Generator: SVG Repo Mixer Tools -->
<svg height="800px" width="800px" version="1.1" id="Layer_1" xmlns="http://www.w3.org/2000/svg" xmlns:xlink="http://www.w3.org/1999/xlink" 
	 viewBox="0 0 505.173 505.173" xml:space="preserve">
<g transform="translate(1 1)">
	<path style="fill:#50DD8E;" d="M243.053,209.773v34.133h-153.6v-51.2h153.6V209.773z M430.787,158.573v51.2H243.053v-17.067
		v-34.133H430.787z"/>
	<g>
		<path style="fill:#FF7474;" d="M383.853,24.6c8.533-4.267,18.773-1.707,23.04,5.973c5.12,8.533,1.707,18.773-5.973,23.04
			c-2.56,1.707-5.12,2.56-8.533,2.56l0,0l0,0c2.56,0,5.973,0.853,8.533,2.56c8.533,5.12,11.093,15.36,5.973,23.04
			c-5.12,8.533-15.36,11.093-23.04,5.973c-2.56-1.707-4.267-3.413-5.973-5.973l0,0c1.707,2.56,2.56,5.12,2.56,8.533
			c0,9.387-7.68,17.067-17.067,17.067s-17.067-7.68-17.067-17.067c0-3.413,0.853-5.973,2.56-8.533l0,0
			c-1.707,2.56-3.413,4.267-5.973,5.973c-8.533,4.267-18.773,1.707-23.04-5.973c-5.12-8.533-1.707-18.773,5.973-23.04
			c2.56-1.707,5.12-2.56,8.533-2.56l0,0l0,0c-2.56,0-5.973-0.853-8.533-2.56c-8.533-5.12-11.093-15.36-5.973-23.04
			c5.12-8.533,15.36-11.093,23.04-5.973c2.56,1.707,4.267,3.413,5.973,5.973l0,0c-1.707-2.56-2.56-5.12-2.56-8.533
			c0-9.387,7.68-17.067,17.067-17.067s17.067,7.68,17.067,17.067c0,3.413-0.853,5.973-2.56,8.533l0,0
			C378.733,28.014,381.293,26.307,383.853,24.6z M185.027,98.84c-5.12,8.533-15.36,11.093-23.04,5.973
			c-2.56-1.707-4.267-3.413-5.973-5.973l0,0c1.707,2.56,2.56,5.12,2.56,8.533c0,9.387-7.68,17.067-17.067,17.067
			s-17.067-7.68-17.067-17.067c0-3.413,0.853-5.973,2.56-8.533l0,0c-1.707,2.56-3.413,4.267-5.973,5.973
			c-8.533,4.267-18.773,1.707-23.04-5.973c-4.267-8.533-1.707-18.773,5.973-23.04c2.56-1.707,5.12-2.56,8.533-2.56l0,0l0,0
			c-2.56,0-5.973-0.853-8.533-2.56c-8.533-5.12-11.093-15.36-5.973-23.04c5.12-8.533,15.36-11.093,23.04-5.973
			c2.56,1.707,4.267,3.413,5.973,5.973l0,0c-1.707-2.56-2.56-5.12-2.56-8.533c0-9.387,7.68-17.067,17.067-17.067
			s17.067,7.68,17.067,17.067c0,3.413-0.853,5.973-2.56,8.533l0,0c1.707-2.56,3.413-4.267,5.973-5.973
			c8.533-4.267,18.773-1.707,23.04,5.973c5.12,8.533,1.707,18.773-5.973,23.04c-2.56,1.707-5.12,2.56-8.533,2.56l0,0l0,0
			c2.56,0,5.973,0.853,8.533,2.56C186.733,80.067,190.147,90.307,185.027,98.84z"/>
		<path style="fill:#50DD8E;" d="M277.187,98.84v25.6h-25.6c-14.507,0-25.6-11.093-25.6-25.6v-25.6h25.6
			C266.093,73.24,277.187,84.333,277.187,98.84z M499.053,39.107v25.6c0,14.507-11.093,25.6-25.6,25.6h-25.6v-25.6
			c0-14.507,11.093-25.6,25.6-25.6H499.053z M55.32,115.907v25.6h-25.6c-14.507,0-25.6-11.093-25.6-25.6v-25.6h25.6
			C44.227,90.307,55.32,101.4,55.32,115.907z"/>
		<path style="fill:#E4F2DE;" d="M89.453,243.907h153.6c0,136.533-25.6,221.867-25.6,221.867s-3.413,21.333-17.067,34.133H157.72
			H21.187c16.213-11.093,25.6-34.133,25.6-34.133s42.667-84.48,42.667-187.733V243.907z M473.453,499.907H328.387H311.32h-34.133
			h-76.8c13.653-12.8,17.067-34.133,17.067-34.133s25.6-85.333,25.6-221.867v-34.133h187.733v34.133
			c0,136.533,25.6,221.867,25.6,221.867S461.507,485.4,473.453,499.907z"/>
	</g>
</g>
<path style="fill:#51565F;" d="M500.053,505.173H363.52c-2.56,0-4.267-1.707-4.267-4.267s1.707-4.267,4.267-4.267h136.533
	c2.56,0,4.267,1.707,4.267,4.267S502.613,505.173,500.053,505.173z M329.387,505.173H312.32c-2.56,0-4.267-1.707-4.267-4.267
	s1.707-4.267,4.267-4.267h17.067c2.56,0,4.267,1.707,4.267,4.267S331.947,505.173,329.387,505.173z M278.187,505.173H158.72
	c-2.56,0-4.267-1.707-4.267-4.267s1.707-4.267,4.267-4.267h119.467c2.56,0,4.267,1.707,4.267,4.267S280.747,505.173,278.187,505.173
	z M124.587,505.173H5.12c-2.56,0-4.267-1.707-4.267-4.267s1.707-4.267,4.267-4.267h119.467c2.56,0,4.267,1.707,4.267,4.267
	S127.147,505.173,124.587,505.173z M457.387,471.04c-1.707,0-3.413-0.853-4.267-3.413c0-0.853-25.6-87.893-25.6-222.72V163.84
	h-179.2v42.667h149.333c2.56,0,4.267,1.707,4.267,4.267c0,2.56-1.707,4.267-4.267,4.267h-153.6c-2.56,0-4.267-1.707-4.267-4.267
	v-51.2c0-2.56,1.707-4.267,4.267-4.267h187.733c2.56,0,4.267,1.707,4.267,4.267v85.333c0,133.973,24.747,220.16,25.6,221.013
	c0.853,2.56-0.853,4.267-2.56,5.12C458.24,471.04,457.387,471.04,457.387,471.04z M218.453,471.04H217.6
	c-2.56-0.853-3.413-3.413-2.56-5.12c0-0.853,24.747-84.48,25.6-216.747H90.453c-2.56,0-4.267-1.707-4.267-4.267v-51.2
	c0-2.56,1.707-4.267,4.267-4.267H209.92c2.56,0,4.267,1.707,4.267,4.267c0,2.56-1.707,4.267-4.267,4.267H94.72v42.667h149.333
	c2.56,0,4.267,1.707,4.267,4.267c0,135.68-25.6,221.867-25.6,222.72C221.867,470.187,220.16,471.04,218.453,471.04z M47.787,471.04
	c-0.853,0-1.707,0-1.707-0.853c-1.707-0.853-2.56-3.413-1.707-5.973c0-0.853,41.813-85.333,41.813-186.027
	c0-2.56,1.707-4.267,4.267-4.267c2.56,0,4.267,1.707,4.267,4.267c0,103.253-42.667,188.587-43.52,189.44
	C51.2,470.187,49.493,471.04,47.787,471.04z M56.32,146.773h-25.6c-16.213,0-29.867-13.653-29.867-29.867v-25.6
	c0-2.56,1.707-4.267,4.267-4.267h25.6c16.213,0,29.867,13.653,29.867,29.867v25.6C60.587,145.067,58.88,146.773,56.32,146.773z
	 M9.387,95.573v21.333c0,11.947,9.387,21.333,21.333,21.333h21.333v-21.333c0-11.947-9.387-21.333-21.333-21.333H9.387z
	 M278.187,129.707h-25.6c-16.213,0-29.867-13.653-29.867-29.867v-25.6c0-2.56,1.707-4.267,4.267-4.267h25.6
	c16.213,0,29.867,13.653,29.867,29.867v25.6C282.453,128,280.747,129.707,278.187,129.707z M231.253,78.507V99.84
	c0,11.947,9.387,21.333,21.333,21.333h21.333V99.84c0-11.947-9.387-21.333-21.333-21.333H231.253z M141.653,129.707
	c-11.093,0-19.627-8.533-21.333-18.773c-4.267,1.707-9.387,2.56-13.653,0.853c-5.12-1.707-10.24-5.12-12.8-10.24
	c-2.56-5.12-3.413-11.093-2.56-16.213c0.853-4.267,4.267-8.533,7.68-11.947c-3.413-2.56-6.827-6.827-7.68-11.947
	c-1.707-5.12-0.853-11.093,2.56-16.213c2.56-5.12,7.68-8.533,12.8-10.24c4.267-0.853,9.387-0.853,13.653,0.853
	c0.853-10.24,10.24-18.773,21.333-18.773S161.28,25.6,162.987,35.84c4.267-1.707,9.387-2.56,13.653-0.853
	c5.12,1.707,10.24,5.12,12.8,10.24S192.853,56.32,192,61.44c-0.853,4.267-4.267,8.533-7.68,11.947
	c3.413,2.56,6.827,6.827,7.68,11.947c1.707,5.12,0.853,11.093-2.56,16.213c-2.56,5.12-7.68,8.533-12.8,10.24
	c-4.267,0.853-9.387,0.853-13.653-0.853C161.28,121.173,152.747,129.707,141.653,129.707z M126.293,95.573
	c0.853,0,1.707,0,2.56,0.853c1.707,0.853,2.56,3.413,1.707,5.973c-0.853,1.707-1.707,4.267-1.707,5.973
	c0,6.827,5.973,12.8,12.8,12.8c6.827,0,12.8-5.973,12.8-12.8c0-1.707-0.853-4.267-1.707-5.973c-0.853-0.853-0.853-2.56,0-3.413
	c0-0.853,0.853-1.707,1.707-2.56c1.707-0.853,4.267-0.853,5.973,1.707c0.853,1.707,2.56,3.413,4.267,4.267
	c2.56,1.707,6.827,2.56,9.387,1.707c3.413-0.853,5.973-3.413,7.68-5.973c1.707-2.56,2.56-6.827,1.707-9.387
	c-0.853-3.413-3.413-5.973-5.973-7.68l0,0c-1.707-0.853-4.267-1.707-5.973-1.707c-2.56,0-4.267-1.707-4.267-4.267
	c0-2.56,1.707-4.267,4.267-4.267s4.267-0.853,5.973-1.707c2.56-1.707,5.12-4.267,5.973-7.68c0.853-3.413,0.853-6.827-1.707-9.387
	c-1.707-2.56-4.267-5.12-7.68-5.973c-3.413-0.853-6.827-0.853-9.387,0.853c-1.707,0.853-3.413,2.56-4.267,4.267
	c-0.853,0.853-1.707,1.707-2.56,1.707c-0.853,0-2.56,0-3.413-0.853c-1.707-0.853-2.56-3.413-1.707-5.973
	c0.853-1.707,1.707-4.267,1.707-5.973c0-6.827-5.973-12.8-12.8-12.8c-6.827,0-12.8,5.973-12.8,12.8c0,1.707,0.853,4.267,1.707,5.973
	c0.853,0.853,0.853,2.56,0,3.413c0,0.853-0.853,1.707-1.707,2.56c-0.853,0.853-1.707,0.853-3.413,0.853
	c-0.853,0-1.707-0.853-2.56-2.56c-0.853-1.707-2.56-3.413-4.267-4.267c-2.56-1.707-6.827-2.56-9.387-1.707
	c-3.413,0.853-5.973,3.413-7.68,5.973c-1.707,2.56-2.56,6.827-1.707,9.387c0.853,3.413,3.413,5.973,5.973,7.68
	c1.707,0.853,4.267,1.707,5.973,1.707c2.56,0,4.267,1.707,4.267,4.267c0,2.56-1.707,4.267-4.267,4.267
	c-2.56,0-4.267,0.853-5.973,1.707c-2.56,1.707-5.12,4.267-5.973,7.68c-0.853,3.413-0.853,6.827,0.853,9.387
	c1.707,2.56,4.267,5.12,7.68,5.973s6.827,0.853,9.387-0.853c1.707-0.853,3.413-2.56,4.267-4.267c0.853-0.853,1.707-1.707,2.56-1.707
	C126.293,95.573,126.293,95.573,126.293,95.573z M363.52,112.64c-11.093,0-19.627-8.533-21.333-18.773
	c-4.267,1.707-9.387,2.56-13.653,0.853c-5.12-1.707-10.24-5.12-12.8-10.24c-2.56-5.12-3.413-11.093-1.707-16.213
	c0.853-4.267,4.267-8.533,7.68-11.947c-3.413-2.56-6.827-6.827-7.68-11.947c-1.707-5.12-0.853-11.093,2.56-16.213
	c2.56-5.12,7.68-8.533,12.8-10.24c4.267-0.853,9.387-0.853,13.653,0.853C343.893,8.533,353.28,0,364.373,0
	C375.467,0,384,8.533,385.707,18.773c4.267-1.707,9.387-2.56,13.653-0.853c5.12,1.707,10.24,5.12,12.8,10.24
	s3.413,11.093,1.707,16.213c-0.853,4.267-4.267,8.533-7.68,11.947c3.413,2.56,6.827,6.827,7.68,11.947
	c1.707,5.12,0.853,11.093-2.56,16.213c-2.56,5.12-7.68,8.533-12.8,10.24c-4.267,0.853-9.387,0.853-13.653-0.853
	C383.147,104.107,374.613,112.64,363.52,112.64z M348.16,78.507c0.853,0,1.707,0,2.56,0.853c1.707,0.853,2.56,3.413,1.707,5.973
	c-0.853,1.707-1.707,4.267-1.707,5.973c0,6.827,5.973,12.8,12.8,12.8s12.8-5.973,12.8-12.8c0-1.707-0.853-4.267-1.707-5.973
	c-0.853-1.707-0.853-4.267,1.707-5.973c0.853-0.853,2.56-0.853,3.413-0.853c0.853,0,1.707,0.853,2.56,1.707
	c0.853,1.707,2.56,3.413,4.267,4.267c2.56,1.707,5.973,2.56,9.387,0.853c3.413-0.853,5.973-3.413,7.68-5.973
	c1.707-2.56,2.56-6.827,1.707-9.387c-0.853-3.413-3.413-5.973-5.973-7.68l0,0c-1.707-0.853-4.267-1.707-5.973-1.707
	c-2.56,0-4.267-1.707-4.267-4.267c0-2.56,1.707-4.267,4.267-4.267s4.267-0.853,5.973-1.707c2.56-1.707,5.12-4.267,5.973-7.68
	c0.853-3.413,0.853-6.827-0.853-9.387c-1.707-2.56-4.267-5.12-7.68-5.973c-3.413-0.853-6.827-0.853-9.387,0.853
	c-1.707,0.853-3.413,2.56-4.267,4.267c-0.853,0.853-1.707,1.707-2.56,1.707s-2.56,0-3.413-0.853
	c-1.707-0.853-2.56-3.413-1.707-5.973c0.853-1.707,1.707-4.267,1.707-5.973c0-6.827-5.973-12.8-12.8-12.8s-12.8,5.973-12.8,12.8
	c0,1.707,0.853,4.267,1.707,5.973c0.853,1.707,0.853,4.267-1.707,5.973c-0.853,0.853-1.707,0.853-3.413,0.853
	c-0.853,0-1.707-0.853-2.56-2.56c-0.853-1.707-2.56-3.413-4.267-4.267c-2.56-1.707-6.827-2.56-9.387-1.707
	c-3.413,0.853-5.973,3.413-7.68,5.973c-1.707,2.56-2.56,6.827-1.707,9.387c0.853,3.413,3.413,5.973,5.973,7.68
	c1.707,0.853,4.267,1.707,5.973,1.707c2.56,0,4.267,1.707,4.267,4.267s-1.707,4.267-4.267,4.267s-4.267,0.853-5.973,1.707
	c-2.56,1.707-5.12,4.267-5.973,7.68c-0.853,3.413-0.853,6.827,0.853,9.387c1.707,2.56,4.267,5.12,7.68,5.973
	c3.413,0.853,6.827,0.853,9.387-0.853c1.707-0.853,3.413-2.56,4.267-4.267c0.853-0.853,1.707-1.707,2.56-1.707
	C348.16,78.507,348.16,78.507,348.16,78.507z M474.453,95.573h-25.6c-2.56,0-4.267-1.707-4.267-4.267v-25.6
	c0-16.213,13.653-29.867,29.867-29.867h25.6c2.56,0,4.267,1.707,4.267,4.267v25.6C504.32,81.92,490.667,95.573,474.453,95.573z
	 M453.12,87.04h21.333c11.947,0,21.333-9.387,21.333-21.333V44.373h-21.333c-11.947,0-21.333,9.387-21.333,21.333V87.04z"/>
</svg>