<?xml version="1.0" encoding="iso-8859-1"?>
<!-- Uploaded to: SVG Repo, www.svgrepo.com, Generator: SVG Repo Mixer Tools -->
<!DOCTYPE svg PUBLIC "-//W3C//DTD SVG 1.1//EN" "http://www.w3.org/Graphics/SVG/1.1/DTD/svg11.dtd">
<svg fill="#000000" height="800px" width="800px" version="1.1" id="Capa_1" xmlns="http://www.w3.org/2000/svg" xmlns:xlink="http://www.w3.org/1999/xlink" 
	 viewBox="0 0 493.415 493.415" xml:space="preserve">
<g>
	<path d="M448.145,54.961c-2.32-0.324-4.471,1.298-4.795,3.623l-14.018,100.643c-0.21,1.503-1.281,2.417-1.901,2.828
		c-1.236,0.82-2.806,1.143-4.427,0.921l-15.738-2.192l14.65-105.186c0.324-2.324-1.298-4.472-3.623-4.795
		c-2.331-0.332-4.472,1.299-4.795,3.623l-14.649,105.186l-19.329-2.691l14.65-105.188c0.324-2.324-1.298-4.472-3.623-4.795
		c-2.327-0.331-4.472,1.299-4.795,3.623l-14.65,105.187l-19.327-2.692l14.65-105.188c0.324-2.324-1.298-4.472-3.623-4.795
		c-2.315-0.334-4.472,1.298-4.795,3.623l-14.65,105.188l-16.423-2.287c-3.142-0.438-5.413-2.832-5.064-5.337l14.018-100.644
		c0.324-2.324-1.298-4.472-3.623-4.795c-2.326-0.334-4.472,1.299-4.795,3.623l-14.018,100.644
		c-0.995,7.145,4.526,13.842,12.31,14.927l34.487,4.803l-4.415,29.57c0,0-85.623-32.568-113.136-45.747
		c-4.138-1.982-8.688-3.335-13.606-3.335h-22.725c-2.172,0-3.994,1.637-4.225,3.796c-0.625,5.819-6.533,10.377-13.451,10.377
		s-12.825-4.558-13.45-10.376c-0.232-2.16-2.054-3.797-4.226-3.797h-22.725c-8.182,0-15.518,3.685-20.842,9.043
		c-20,20.125-79.075,79.633-79.075,79.633c-4.362,4.362-6.766,10.162-6.766,16.332c0,6.17,2.403,11.97,6.765,16.331
		c4.362,4.362,10.162,6.766,16.332,6.766c6.17,0,11.97-2.403,16.331-6.766l39.71-39.709v233.197
		c0,18.228,14.831,33.058,33.061,33.058c18.229,0,33.059-14.829,33.059-33.057v-99.056h3.654v99.056
		c0,18.228,14.83,33.057,33.059,33.057c18.229,0,33.061-14.83,33.061-33.058V203.578l91.761,38.608L313.346,476.93
		c-0.563,3.765,0.374,7.523,2.639,10.582c2.265,3.059,5.585,5.055,9.351,5.616l0.863,0.129c0.711,0.106,1.416,0.158,2.114,0.158
		c6.934-0.001,13.028-5.086,14.084-12.147l46.944-314.399l32.49,4.524c0.725,0.102,1.448,0.151,2.167,0.151
		c2.922,0,5.748-0.827,8.129-2.405c3.131-2.075,5.128-5.18,5.623-8.741l14.018-100.643C452.092,57.432,450.47,55.284,448.145,54.961
		z M235.62,152.969c7.234,2.469,12.516,10.653,12.516,17.572v103.443c-4.102-0.438-7.203-1.622-8.951-3.782
		c-2.348-2.901-2.088-7.621-2.088-7.621v-71.997c0-1.281-0.578-2.415-1.474-3.194L235.62,152.969z M227.123,186.334h-8.779v-34.529
		h8.779V186.334z M188.689,165.978c9.93,0,18.361-5.876,21.086-14.173h0.069v34.529h-42.283v-34.529h0.043
		C170.328,160.102,178.759,165.978,188.689,165.978z M140.227,262.581c0.005,0.04,0.032,4.454-2.174,7.6
		c-1.584,2.259-4.797,3.323-8.809,3.782V170.541c0-4.733,1.807-9.047,4.759-12.349l0.009-0.009c0.002-0.002,0.003-0.004,0.005-0.006
		c2.087-2.329,4.747-4.138,7.767-5.223v34.367c-0.942,0.779-1.556,1.942-1.556,3.262V262.581z M120.744,209.507l-18.991-18.992
		l18.991-19.034V209.507z M150.283,151.805h8.778v34.529h-8.778V151.805z M75.023,258.634c-2.756,2.757-6.422,4.275-10.32,4.275
		c-3.899,0-7.565-1.519-10.321-4.276c-2.757-2.756-4.275-6.422-4.275-10.32c0-3.898,1.519-7.564,4.279-10.324l41.364-41.457
		l20.688,20.689L75.023,258.634z M223.576,482.69c-13.542,0-24.559-11.016-24.559-24.557V354.827c0-2.348-1.902-4.25-4.25-4.25
		h-12.154c-2.348,0-4.25,1.902-4.25,4.25v103.306c0,13.541-11.017,24.557-24.559,24.557c-13.543,0-24.561-11.017-24.561-24.558
		v-1.475h32.977c2.348,0,4.25-1.902,4.25-4.25c0-2.348-1.902-4.25-4.25-4.25h-32.977v-114.92l22.381-22.38
		c1.66-1.659,1.66-4.351,0-6.01c-1.658-1.66-4.352-1.66-6.01,0l-16.371,16.37v-38.72c6.718-0.593,11.86-2.866,15.287-6.813
		c4.64-5.344,4.135-11.557,4.196-13.348v-67.504h79.87v67.485c0.006,1.716-0.502,8.023,4.085,13.358
		c3.435,3.994,8.63,6.282,15.454,6.845v38.96l-16.633-16.635c-1.66-1.66-4.351-1.659-6.011-0.001c-1.66,1.66-1.66,4.351-0.001,6.011
		l22.645,22.647v97.79h-8.077c-2.348,0-4.25,1.902-4.25,4.25c0,2.348,1.902,4.25,4.25,4.25h8.077v8.363l-32.859-0.001
		c-2.347,0-4.25,1.902-4.25,4.25c0,2.347,1.902,4.25,4.25,4.25l32.859,0.001v1.474C248.136,471.673,237.119,482.69,223.576,482.69z
		 M254.855,160.917l30.168,12.14l-11.898,28.238l-16.489-6.938v-23.816C256.636,167.153,256.002,163.911,254.855,160.917z
		 M280.961,204.592l11.949-28.361l61.632,24.799l-4.85,32.48L280.961,204.592z M333.991,480.013
		c-0.469,3.137-3.385,5.312-6.537,4.838l-0.864-0.129c-1.519-0.228-2.858-1.032-3.772-2.267c-0.913-1.234-1.291-2.75-1.064-4.27
		l46.914-314.196l12.257,1.707L333.991,480.013z"/>
	<path d="M90.689,62.251c9.029,1.883,21.576,3.584,35.539,4.827c-0.711,3.91-1.157,8.222-1.255,12.985
		c-0.175,8.444-0.565,28.09,21.101,39.729c9.307,13.576,24.923,22.504,42.59,22.504c17.689,0,33.322-8.948,42.626-22.552
		c21.309-11.512,21.058-31.063,20.944-39.477c-0.061-4.444-0.557-8.791-1.446-12.998c13.545-1.232,25.864-2.929,35.025-4.834
		c14.355-2.987,19.692-5.953,19.692-10.942c0-5.296-6.377-7.797-11.934-9.385c-5.888-1.683-14.23-3.184-24.796-4.46
		c-6.912-0.836-14.564-1.549-22.761-2.134C238.364,13.234,217.064,0,188.589,0c-28.47,0-49.787,13.243-57.424,35.52
		c-8.173,0.584-15.802,1.295-22.695,2.129c-10.566,1.277-18.908,2.777-24.796,4.46c-5.557,1.588-11.934,4.09-11.934,9.386
		C71.741,56.391,77.053,59.407,90.689,62.251z M188.663,133.797c-23.77,0-43.108-19.339-43.108-43.109V78.748
		c11.066-4.256,17.93-15.848,21.355-23.384c9.334,9.772,31.912,29.141,64.863,30.212v5.111
		C231.774,114.458,212.435,133.797,188.663,133.797z M239.097,101.624c0.764-3.527,1.177-7.184,1.177-10.937v-5.48
		c1.605-0.669,2.705-2.274,2.618-4.112c-0.111-2.344-2.101-4.161-4.447-4.043c-42.872,2.045-69.29-31.969-69.549-32.309l-0.01,0.007
		c-0.521-0.688-1.245-1.229-2.133-1.502c-2.237-0.685-4.618,0.572-5.309,2.813c-0.075,0.242-7.647,24.245-23.104,25.76
		c-2.336,0.229-4.045,2.308-3.815,4.644c0.155,1.585,1.168,2.87,2.529,3.469v10.754c0,3.884,0.445,7.664,1.263,11.305
		c-4.314-6.613-5.002-14.224-4.847-21.754c0.344-16.821,5.541-29.627,15.028-37.035c0.072-0.057,0.127-0.126,0.195-0.187
		c12.627-0.582,26.139-0.887,39.929-0.887c13.891,0,27.498,0.31,40.205,0.9c9.417,9.769,14.709,22.977,14.905,37.355
		C243.806,85.692,243.917,93.99,239.097,101.624z M294.54,51.36c-6.385,2.319-21.941,5.475-46.095,7.588
		c-1.958-5.479-4.662-10.611-8.034-15.283c8.22,0.519,15.945,1.159,22.958,1.92C282.177,47.626,290.737,49.906,294.54,51.36z
		 M143.189,29.795h42.802c2.348,0,4.25-1.902,4.25-4.25c0-2.348-1.902-4.25-4.25-4.25h-35.767
		C159.285,13.01,172.458,8.5,188.589,8.5c23.487,0,40.694,9.555,48.077,26.418c-14.854-0.843-31.169-1.288-48.043-1.288
		c-16.9,0-33.241,0.446-48.112,1.291C141.294,33.129,142.187,31.419,143.189,29.795z M113.876,45.584
		c6.808-0.738,14.287-1.364,22.238-1.875c-2.981,3.84-5.763,8.751-7.803,15.019c-24.951-2.151-39.578-5.197-45.612-7.365
		C86.499,49.908,95.06,47.626,113.876,45.584z"/>
	<path d="M190.087,101.378h-5.177c-9.956,0-18.056,8.1-18.056,18.055v5.35c0,2.348,1.902,4.25,4.25,4.25s4.25-1.902,4.25-4.25v-5.35
		c0-5.269,4.287-9.555,9.556-9.555h5.177c5.269,0,9.555,4.286,9.555,9.555v5.35c0,2.348,1.902,4.25,4.25,4.25
		c2.348,0,4.25-1.902,4.25-4.25v-5.35C208.142,109.478,200.042,101.378,190.087,101.378z"/>
	<path d="M192.307,117.185h-9.616c-2.348,0-4.25,1.902-4.25,4.25c0,2.348,1.902,4.25,4.25,4.25h9.616c2.348,0,4.25-1.902,4.25-4.25
		C196.557,119.087,194.655,117.185,192.307,117.185z"/>
	<path d="M169.961,207.384c0-2.348-1.902-4.25-4.25-4.25h-9.6c-2.348,0-4.25,1.902-4.25,4.25c0,2.348,1.902,4.25,4.25,4.25h9.6
		C168.059,211.634,169.961,209.732,169.961,207.384z"/>
	<path d="M221.102,211.634c2.348,0,4.25-1.902,4.25-4.25c0-2.348-1.902-4.25-4.25-4.25h-9.6c-2.348,0-4.25,1.902-4.25,4.25
		c0,2.348,1.902,4.25,4.25,4.25H221.102z"/>
	<path d="M201.71,241.473h-29c-2.348,0-4.25,1.902-4.25,4.25s1.902,4.25,4.25,4.25h29c2.348,0,4.25-1.902,4.25-4.25
		S204.058,241.473,201.71,241.473z"/>
</g>
</svg>