<?xml version="1.0" encoding="iso-8859-1"?>
<!-- Uploaded to: SVG Repo, www.svgrepo.com, Generator: SVG Repo Mixer Tools -->
<svg fill="#000000" height="800px" width="800px" version="1.1" id="Layer_1" xmlns="http://www.w3.org/2000/svg" xmlns:xlink="http://www.w3.org/1999/xlink" 
	 viewBox="0 0 512 512" xml:space="preserve">
<g>
	<g>
		<g>
			<path d="M448,34.133H216.132c-3.523-9.931-13.009-17.067-24.132-17.067c-3.332,0-6.513,0.647-9.436,1.81
				C179.603,8.014,169.655,0,157.867,0s-21.736,8.014-24.698,18.877c-2.922-1.163-6.104-1.81-9.436-1.81
				c-14.114,0-25.6,11.486-25.6,25.6V76.8c0,14.114,11.486,25.6,25.6,25.6c3.332,0,6.513-0.647,9.436-1.81
				c2.961,10.863,12.91,18.877,24.698,18.877s21.736-8.014,24.698-18.877c2.922,1.163,6.104,1.81,9.436,1.81
				c11.123,0,20.608-7.135,24.132-17.067H448c14.114,0,25.6-11.486,25.6-25.6S462.115,34.133,448,34.133z M123.734,85.333
				c-4.71,0-8.533-3.831-8.533-8.533V42.667c0-4.702,3.823-8.533,8.533-8.533c4.71,0,8.533,3.831,8.533,8.533V76.8
				C132.267,81.502,128.444,85.333,123.734,85.333z M166.4,93.867c0,4.702-3.823,8.533-8.533,8.533c-4.71,0-8.533-3.831-8.533-8.533
				V76.8V42.667V25.6c0-4.702,3.823-8.533,8.533-8.533c4.71,0,8.533,3.831,8.533,8.533v17.067V76.8V93.867z M192,85.333
				c-4.71,0-8.533-3.831-8.533-8.533V42.667c0-4.702,3.823-8.533,8.533-8.533s8.533,3.831,8.533,8.533V76.8
				C200.534,81.502,196.711,85.333,192,85.333z M448,68.267H217.6V51.2H448c4.71,0,8.533,3.831,8.533,8.533
				S452.711,68.267,448,68.267z"/>
			<path d="M132.267,136.533V128c0-4.71-3.814-8.533-8.533-8.533c-4.719,0-8.533,3.823-8.533,8.533v8.533
				c0,4.71,3.814,8.533,8.533,8.533C128.453,145.067,132.267,141.244,132.267,136.533z"/>
			<path d="M166.4,153.6v-8.533c0-4.71-3.814-8.533-8.533-8.533c-4.719,0-8.533,3.823-8.533,8.533v8.533
				c0,4.71,3.814,8.533,8.533,8.533C162.586,162.133,166.4,158.31,166.4,153.6z"/>
			<path d="M200.534,136.533V128c0-4.71-3.814-8.533-8.533-8.533s-8.533,3.823-8.533,8.533v8.533c0,4.71,3.814,8.533,8.533,8.533
				S200.534,141.244,200.534,136.533z"/>
			<path d="M260.573,247.467h-0.162h-0.145c-6.827,0-13.235-2.645-18.057-7.441c-2.773-2.758-4.832-6.041-6.094-9.626h7.084
				c14.114,0,25.6-11.486,25.6-25.6s-11.486-25.6-25.6-25.6H89.6c-14.114,0-25.6,11.486-25.6,25.6s11.486,25.6,25.6,25.6h7.085
				c-1.26,3.585-3.319,6.868-6.096,9.626c-4.855,4.83-10.897,7.373-18.193,7.441c-8.695-0.094-17.033,3.413-23.39,9.737
				C42.265,263.91,38.4,273.237,38.4,282.786v192.137C38.4,495.369,55.031,512,75.485,512h181.837
				c20.446,0,37.077-16.631,37.077-37.077V282.786c0-9.549-3.866-18.876-10.607-25.583
				C277.478,250.923,269.235,247.467,260.573,247.467z M81.067,204.8c0-4.702,3.823-8.533,8.533-8.533h153.6
				c4.71,0,8.533,3.831,8.533,8.533c0,4.702-3.823,8.533-8.533,8.533h-8.534H98.133H89.6C84.89,213.333,81.067,209.502,81.067,204.8
				z M277.333,474.923c0,11.034-8.977,20.011-20.011,20.011H75.485c-11.034,0-20.019-8.977-20.019-20.011V282.786
				c0-5.043,2.031-9.958,5.572-13.483c3.106-3.081,7.074-4.77,11.187-4.77h0.307c11.366,0,22.042-4.403,30.097-12.407
				c6.05-6.025,10.069-13.542,11.725-21.726h104.098c1.647,8.183,5.666,15.701,11.725,21.726
				c8.047,8.004,18.722,12.407,30.089,12.407h0.222h0.085c4.122,0,8.09,1.69,11.187,4.77c3.541,3.524,5.572,8.44,5.572,13.483
				V474.923z"/>
			<path d="M238.482,367.836l-29.414-14.707v-37.397c0-3.234-1.826-6.187-4.719-7.629l-34.133-17.067
				c-2.398-1.203-5.231-1.203-7.629,0l-34.133,17.067c-2.893,1.442-4.719,4.395-4.719,7.629v37.397l-29.414,14.707
				c-2.893,1.442-4.719,4.395-4.719,7.629v42.667c0,3.234,1.826,6.187,4.719,7.637l34.133,17.067
				c1.195,0.597,2.509,0.896,3.814,0.896s2.62-0.299,3.814-0.896l30.319-15.159l30.319,15.159c1.195,0.597,2.509,0.896,3.814,0.896
				s2.62-0.299,3.814-0.896l34.133-17.067c2.893-1.451,4.719-4.403,4.719-7.637v-42.667
				C243.2,372.231,241.374,369.278,238.482,367.836z M140.8,321.005l25.6-12.8l25.6,12.8v32.12l-25.6,12.8l-25.6-12.8V321.005z
				 M132.267,425.658l-25.6-12.8v-32.119l25.596-12.798l25.604,12.802v32.115L132.267,425.658z M226.134,412.858l-25.6,12.8
				l-25.6-12.8v-32.115l25.604-12.802l25.596,12.798V412.858z"/>
		</g>
	</g>
</g>
</svg>