<?xml version="1.0" encoding="iso-8859-1"?>
<!-- Uploaded to: SVG Repo, www.svgrepo.com, Generator: SVG Repo Mixer Tools -->
<svg height="800px" width="800px" version="1.1" id="Layer_1" xmlns="http://www.w3.org/2000/svg" xmlns:xlink="http://www.w3.org/1999/xlink" 
	 viewBox="0 0 512 512" xml:space="preserve">
<g transform="translate(1 1)">
	<path style="fill:#FDCC00;" d="M457.24,449.453L457.24,449.453c-26.453,26.453-69.973,26.453-96.427,0l0,0
		c-26.453-26.453-26.453-69.973,0-96.427l47.787-46.08l48.64,45.227C483.693,379.48,483.693,422.147,457.24,449.453"/>
	<path style="fill:#FFA800;" d="M457.24,352.173l-48.64-45.227l-12.8,11.947l35.84,33.28c26.453,26.453,26.453,69.973,0,96.427
		c-10.24,10.24-22.187,16.213-35.84,18.773c21.333,4.267,44.373-2.56,61.44-18.773C483.693,422.147,483.693,379.48,457.24,352.173"
		/>
	<polygon style="fill:#FDCC00;" points="75.8,85.08 41.667,68.013 41.667,25.347 75.8,8.28 109.933,25.347 109.933,68.013 	"/>
	<polygon style="fill:#FFA800;" points="144.067,85.08 109.933,68.013 109.933,25.347 144.067,8.28 178.2,25.347 178.2,68.013 	"/>
	<polygon style="fill:#FDCC00;" points="41.667,144.813 7.533,127.747 7.533,85.08 41.667,68.013 75.8,85.08 75.8,127.747 	"/>
	<g>
		<polygon style="fill:#FFA800;" points="109.933,144.813 75.8,127.747 75.8,85.08 109.933,68.013 144.067,85.08 144.067,127.747 		
			"/>
		<polygon style="fill:#FFA800;" points="75.8,204.547 41.667,187.48 41.667,144.813 75.8,127.747 109.933,144.813 109.933,187.48 
					"/>
	</g>
	<g>
		<polygon style="fill:#FF8800;" points="144.067,204.547 109.933,187.48 109.933,144.813 144.067,127.747 178.2,144.813 
			178.2,187.48 		"/>
		<polygon style="fill:#FF8800;" points="178.2,144.813 144.067,127.747 144.067,85.08 178.2,68.013 212.333,85.08 212.333,127.747 
					"/>
	</g>
	<g>
		<path style="fill:#FFE100;" d="M307.907,240.387L48.493,499.8c-2.56,2.56-5.973,2.56-8.533,0L11.8,471.64
			c-2.56-2.56-2.56-5.973,0-8.533l260.267-258.56L307.907,240.387z"/>
		<path style="fill:#FFE100;" d="M266.093,161.88L266.093,161.88c10.24-10.24,26.453-10.24,35.84,0l48.64,48.64
			c10.24,10.24,10.24,26.453,0,35.84l0,0c-10.24,10.24-26.453,10.24-35.84,0l-48.64-48.64
			C255.853,188.333,255.853,172.12,266.093,161.88"/>
	</g>
	<path style="fill:#FDCC00;" d="M404.333,228.44L404.333,228.44c-10.24,10.24-26.453,10.24-35.84,0l-84.48-84.48
		c-10.24-10.24-10.24-26.453,0-35.84l0,0c10.24-10.24,26.453-10.24,35.84,0l84.48,84.48
		C414.573,201.987,414.573,218.2,404.333,228.44"/>
	<path style="fill:#FFE100;" d="M452.973,204.547L452.973,204.547c-10.24,10.24-26.453,10.24-35.84,0l-115.2-115.2
		c-10.24-10.24-10.24-26.453,0-35.84c10.24-10.24,26.453-10.24,35.84,0L452.12,167.853
		C462.36,178.093,462.36,194.307,452.973,204.547"/>
	<path style="fill:#FDCC00;" d="M476.867,155.907L476.867,155.907c-10.24,10.24-26.453,10.24-35.84,0l-84.48-84.48
		c-10.24-10.24-10.24-26.453,0-35.84c9.387-10.24,25.6-10.24,35.84,0l84.48,84.48C487.107,129.453,487.107,145.667,476.867,155.907"
		/>
	<path style="fill:#FFE100;" d="M494.787,101.293L494.787,101.293c-10.24,10.24-26.453,10.24-35.84,0l-48.64-48.64
		c-10.24-10.24-10.24-26.453,0-35.84c10.24-10.24,26.453-10.24,35.84,0l48.64,48.64C505.027,75.693,505.027,91.907,494.787,101.293"
		/>
	<path style="fill:#FFFFFF;" d="M21.187,474.2L280.6,213.933l-9.387-9.387L11.8,463.96c-2.56,2.56-2.56,5.973,0,8.533l9.387,9.387
		C18.627,480.173,18.627,475.907,21.187,474.2"/>
	<g>
		<path style="fill:#FFA800;" d="M297.667,231L38.253,491.267c-2.56,2.56-5.973,2.56-8.533,0l9.387,9.387
			c2.56,2.56,5.973,2.56,8.533,0L307.053,241.24L297.667,231z"/>
		<path style="fill:#FFA800;" d="M481.133,51.8c10.24,10.24,10.24,26.453,0,35.84c-9.387,9.387-24.747,10.24-34.987,0.853
			l11.093,11.093c10.24,10.24,26.453,10.24,35.84,0s10.24-26.453,0-35.84L481.133,51.8z"/>
	</g>
	<path style="fill:#FFFFFF;" d="M445.293,15.96c-10.24-10.24-26.453-10.24-35.84,0l0,0c-10.24,9.387-10.24,26.453-0.853,35.84
		l14.507,14.507c-8.533-10.24-8.533-25.6,0.853-34.987c10.24-10.24,26.453-10.24,35.84,0L445.293,15.96z"/>
	<path style="fill:#FDCC00;" d="M463.213,142.253L463.213,142.253c-10.24,10.24-26.453,10.24-35.84,0L369.347,85.08
		c-10.24-10.24-10.24-26.453,0-35.84l0,0c10.24-10.24,26.453-10.24,35.84,0l58.027,58.027
		C473.453,116.653,473.453,132.867,463.213,142.253"/>
	<path style="fill:#FFA800;" d="M441.88,154.2c10.24,10.24,26.453,10.24,35.84,0c10.24-10.24,10.24-26.453,0-35.84l-13.653-13.653
		c10.24,10.24,10.24,26.453,0,35.84c-10.24,10.24-26.453,10.24-35.84,0L441.88,154.2z"/>
	<path style="fill:#FFFFFF;" d="M394.093,33.88c-10.24-10.24-26.453-10.24-35.84,0l0,0c-10.24,10.24-10.24,26.453,0,35.84
		l13.653,13.653c-10.24-10.24-10.24-26.453,0-35.84c10.24-10.24,26.453-10.24,35.84,0L394.093,33.88z"/>
	<path style="fill:#FFA800;" d="M417.133,205.4c10.24,10.24,26.453,10.24,35.84,0c10.24-10.24,10.24-26.453,0-35.84l-13.653-13.653
		c10.24,10.24,10.24,26.453,0,35.84c-10.24,10.24-26.453,10.24-35.84,0L417.133,205.4z"/>
	<path style="fill:#FFFFFF;" d="M336.92,52.653c-10.24-10.24-26.453-10.24-35.84,0l0,0c-10.24,10.24-10.24,26.453,0,35.84
		l13.653,13.653c-10.24-10.24-10.24-26.453,0-35.84c10.24-10.24,26.453-10.24,35.84,0L336.92,52.653z"/>
	<path style="fill:#FFA800;" d="M365.933,228.44c10.24,10.24,26.453,10.24,35.84,0c10.24-10.24,10.24-26.453,0-35.84l-12.8-13.653
		c10.24,10.24,10.24,26.453,0,35.84c-10.24,10.24-26.453,10.24-35.84,0L365.933,228.44z"/>
	<path style="fill:#FFFFFF;" d="M319.853,103.853c-10.24-10.24-26.453-10.24-35.84,0l0,0c-10.24,10.24-10.24,26.453,0,35.84
		l13.653,13.653c-10.24-10.24-10.24-26.453,0-35.84c10.24-10.24,26.453-10.24,35.84,0L319.853,103.853z"/>
	<path style="fill:#FFA800;" d="M312.173,248.067c10.24,10.24,26.453,10.24,35.84,0c10.24-10.24,10.24-26.453,0-35.84
		l-13.653-13.653c10.24,10.24,10.24,26.453,0,35.84c-10.24,10.24-26.453,10.24-35.84,0L312.173,248.067z"/>
	<path style="fill:#FFFFFF;" d="M300.227,161.027c-10.24-10.24-26.453-10.24-35.84,0l0,0c-10.24,10.24-10.24,26.453,0,35.84
		l13.653,13.653c-10.24-10.24-10.24-26.453,0-35.84c10.24-10.24,26.453-10.24,35.84,0L300.227,161.027z"/>
	<path d="M476.867,117.507c-9.387,0-17.92-3.413-23.893-10.24l-48.64-47.787c-6.827-6.827-10.24-15.36-10.24-23.893
		c0-9.387,3.413-17.92,10.24-23.893s15.36-10.24,23.893-10.24c9.387,0,17.92,3.413,23.893,10.24l48.64,47.787
		c13.653,13.653,13.653,34.987,0,48.64C494.787,114.093,486.253,117.507,476.867,117.507z M428.227,18.52
		c-4.267,0-8.533,1.707-11.947,5.12c-3.413,3.413-5.12,7.68-5.12,11.947c0,4.267,1.707,8.533,5.12,11.947l48.64,48.64
		c6.827,6.827,17.92,6.827,23.893,0c6.827-6.827,6.827-17.067,0-23.893l-48.64-48.64C437.613,20.227,433.347,18.52,428.227,18.52z"
		/>
	<path d="M458.947,172.12c-9.387,0-17.92-3.413-23.893-10.24l-84.48-84.48c-13.653-13.653-13.653-34.987,0-48.64
		c6.827-6.827,15.36-10.24,23.893-10.24c9.387,0,17.92,3.413,23.893,10.24l84.48,84.48c13.653,13.653,13.653,34.987,0,48.64
		C476.867,168.707,468.333,172.12,458.947,172.12z M374.467,36.44c-4.267,0-8.533,1.707-11.947,5.12
		c-6.827,6.827-6.827,17.067,0,23.893l84.48,84.48c6.827,6.827,17.92,6.827,23.893,0c6.827-6.827,6.827-17.067,0-23.893
		l-84.48-84.48C383,38.147,378.733,36.44,374.467,36.44z"/>
	<path d="M386.413,244.653c-9.387,0-17.92-3.413-23.893-10.24l-84.48-84.48c-13.653-13.653-13.653-34.987,0-48.64
		c6.827-6.827,15.36-10.24,23.893-10.24c9.387,0,17.92,3.413,23.893,10.24l84.48,84.48c13.653,13.653,13.653,34.987,0,48.64
		C404.333,240.387,395.8,244.653,386.413,244.653z M301.933,108.973c-4.267,0-8.533,1.707-11.947,5.12
		c-6.827,6.827-6.827,17.067,0,23.893l84.48,84.48c6.827,6.827,17.92,6.827,23.893,0c6.827-6.827,6.827-17.067,0-23.893
		l-84.48-84.48C310.467,110.68,306.2,108.973,301.933,108.973z"/>
	<path d="M331.8,262.573c-9.387,0-17.92-3.413-23.893-10.24l-48.64-47.787c-13.653-13.653-13.653-34.987,0-48.64
		c6.827-6.827,15.36-10.24,23.893-10.24c9.387,0,17.92,3.413,23.893,10.24l48.64,48.64c13.653,13.653,13.653,34.987,0,48.64
		C349.72,259.16,341.187,262.573,331.8,262.573z M284.013,162.733c-4.267,0-8.533,1.707-11.947,5.12
		c-6.827,6.827-6.827,17.067,0,23.893l48.64,48.64c6.827,6.827,17.92,6.827,23.893,0c6.827-6.827,6.827-17.067,0-23.893
		l-48.64-48.64C292.547,164.44,288.28,162.733,284.013,162.733z"/>
	<path d="M435.053,219.907c-9.387,0-17.92-3.413-23.893-10.24L295.96,95.32c-13.653-13.653-13.653-34.987,0-48.64
		c6.827-6.827,15.36-10.24,23.893-10.24c9.387,0,17.92,3.413,23.893,10.24l115.2,115.2c13.653,13.653,13.653,34.987,0,48.64
		C452.12,216.493,443.587,219.907,435.053,219.907z M319.853,54.36c-4.267,0-8.533,1.707-11.947,5.12
		c-6.827,6.827-6.827,17.067,0,23.893L422.253,197.72c6.827,6.827,17.92,6.827,23.893,0c6.827-6.827,6.827-17.067,0-23.893
		L331.8,59.48C329.24,56.067,324.973,54.36,319.853,54.36z"/>
	<path d="M44.227,510.04c-3.413,0-7.68-1.707-10.24-4.267l-28.16-28.16c-2.56-2.56-4.267-5.973-4.267-10.24s1.707-7.68,4.267-10.24
		l266.24-265.387l48.64,48.64l-266.24,266.24C51.907,509.187,47.64,510.04,44.227,510.04z M20.333,468.227l23.893,23.893
		L295.96,240.387l-23.893-23.893L20.333,468.227z"/>
	<path d="M408.6,477.613c-20.48,0-40.107-7.68-54.613-22.187c-29.867-29.867-29.867-78.507,0-108.373l48.64-46.08
		c3.413-3.413,8.533-3.413,11.947,0l48.64,45.227c29.867,29.867,29.867,78.507,0,108.373
		C448.707,469.933,429.08,477.613,408.6,477.613z M408.6,318.893L365.933,359c-23.04,23.04-23.04,61.44,0,84.48
		c11.093,11.093,26.453,17.067,42.667,17.067c16.213,0,30.72-5.973,42.667-17.067c23.04-23.04,23.04-61.44,0-84.48L408.6,318.893z"
		/>
	<path d="M75.8,93.613c-1.707,0-2.56,0-3.413-0.853L38.253,75.693c-3.413-1.707-5.12-4.267-5.12-7.68V25.347
		c0-3.413,1.707-5.973,5.12-7.68L72.387,0.6c1.707-0.853,5.12-0.853,6.827,0l34.133,17.067c3.413,1.707,5.12,4.267,5.12,7.68v42.667
		c0,3.413-1.707,5.973-5.12,7.68L79.213,92.76C78.36,93.613,77.507,93.613,75.8,93.613z M50.2,62.893l25.6,12.8l25.6-12.8V30.467
		l-25.6-12.8l-25.6,12.8V62.893z"/>
	<path d="M144.067,93.613c-1.707,0-2.56,0-3.413-0.853L106.52,75.693c-3.413-1.707-5.12-4.267-5.12-7.68V25.347
		c0-3.413,1.707-5.973,5.12-7.68L140.653,0.6c2.56-0.853,5.12-0.853,7.68,0l34.133,17.067c2.56,1.707,4.267,4.267,4.267,7.68v42.667
		c0,3.413-1.707,5.973-5.12,7.68L147.48,92.76C146.627,93.613,145.773,93.613,144.067,93.613z M118.467,62.893l25.6,12.8l25.6-12.8
		V30.467l-25.6-12.8l-25.6,12.8V62.893z"/>
	<path d="M41.667,153.347c-1.707,0-2.56,0-3.413-0.853L4.12,135.427C0.707,133.72-1,131.16-1,127.747V85.08
		c0-3.413,1.707-5.973,5.12-7.68l34.133-17.067c1.707-0.853,5.12-0.853,6.827,0L79.213,77.4c3.413,1.707,5.12,4.267,5.12,7.68
		v42.667c0,3.413-1.707,5.973-5.12,7.68L45.08,152.493C44.227,153.347,43.373,153.347,41.667,153.347z M16.067,122.627l25.6,12.8
		l25.6-12.8V90.2l-25.6-12.8l-25.6,12.8V122.627z"/>
	<path d="M109.933,153.347c-1.707,0-2.56,0-3.413-0.853l-34.133-17.067c-3.413-1.707-5.12-4.267-5.12-7.68V85.08
		c0-3.413,1.707-5.973,5.12-7.68l34.133-17.067c2.56-0.853,5.12-0.853,7.68,0L148.333,77.4c2.56,1.707,4.267,4.267,4.267,7.68
		v42.667c0,3.413-1.707,5.973-5.12,7.68l-34.133,17.067C112.493,153.347,111.64,153.347,109.933,153.347z M84.333,122.627l25.6,12.8
		l25.6-12.8V90.2l-25.6-12.8l-25.6,12.8V122.627z"/>
	<path d="M75.8,213.08c-1.707,0-2.56,0-3.413-0.853L38.253,195.16c-3.413-1.707-5.12-4.267-5.12-7.68v-42.667
		c0-3.413,1.707-5.973,5.12-7.68l34.133-17.067c2.56-0.853,5.12-0.853,7.68,0l34.133,17.067c2.56,1.707,5.12,4.267,5.12,7.68v42.667
		c0,3.413-1.707,5.973-5.12,7.68l-34.133,17.067C78.36,213.08,77.507,213.08,75.8,213.08z M50.2,182.36l25.6,12.8l25.6-12.8v-32.427
		l-25.6-12.8l-25.6,12.8V182.36z"/>
	<path d="M144.067,213.08c-1.707,0-2.56,0-3.413-0.853L106.52,195.16c-3.413-1.707-5.12-4.267-5.12-7.68v-42.667
		c0-3.413,1.707-5.973,5.12-7.68l34.133-17.067c2.56-0.853,5.12-0.853,7.68,0l34.133,17.067c2.56,1.707,5.12,4.267,5.12,7.68v42.667
		c0,3.413-1.707,5.973-5.12,7.68l-34.133,17.067C146.627,213.08,145.773,213.08,144.067,213.08z M118.467,182.36l25.6,12.8
		l25.6-12.8v-32.427l-25.6-12.8l-25.6,12.8V182.36z"/>
	<path d="M178.2,153.347c-1.707,0-2.56,0-3.413-0.853l-34.133-17.067c-3.413-1.707-5.12-4.267-5.12-7.68V85.08
		c0-3.413,1.707-5.973,5.12-7.68l34.133-17.067c2.56-0.853,5.12-0.853,7.68,0L216.6,77.4c2.56,1.707,4.267,4.267,4.267,7.68v42.667
		c0,3.413-1.707,5.973-5.12,7.68l-34.133,17.067C180.76,153.347,179.907,153.347,178.2,153.347z M152.6,122.627l25.6,12.8l25.6-12.8
		V90.2l-25.6-12.8l-25.6,12.8V122.627z"/>
</g>
</svg>