<?xml version="1.0" encoding="iso-8859-1"?>
<!-- Uploaded to: SVG Repo, www.svgrepo.com, Generator: SVG Repo Mixer Tools -->
<svg height="800px" width="800px" version="1.1" id="Layer_1" xmlns="http://www.w3.org/2000/svg" xmlns:xlink="http://www.w3.org/1999/xlink" 
	 viewBox="0 0 512 512" xml:space="preserve">
<path style="fill:#3A7545;" d="M495.528,107.762H16.472C7.375,107.762,0,115.136,0,124.233v263.534
	c0,9.097,7.375,16.472,16.472,16.472h479.057c9.097,0,16.472-7.375,16.472-16.472V124.233
	C512,115.135,504.626,107.762,495.528,107.762z"/>
<path style="fill:#8DC652;" d="M257.099,107.762H16.472C7.375,107.762,0,115.136,0,124.233v263.534
	c0,9.097,7.375,16.472,16.472,16.472h240.627V107.762z"/>
<g>
	<path style="fill:#38979E;" d="M16.472,237.058c62.311,0,112.825-50.513,112.825-112.825H16.472V237.058z"/>
	<path style="fill:#38979E;" d="M16.472,274.941v112.825h112.825C129.297,325.454,78.784,274.941,16.472,274.941z"/>
</g>
<g>
	<path style="fill:#235559;" d="M382.703,124.233c0,62.311,50.513,112.825,112.825,112.825V124.233H382.703z"/>
	<path style="fill:#235559;" d="M495.528,274.941c-62.311,0-112.825,50.513-112.825,112.825h112.825V274.941z"/>
</g>
<circle style="fill:#005049;" cx="256.003" cy="257.122" r="102.015"/>
<path style="fill:#006E64;" d="M257.099,155.124c-0.367-0.004-0.731-0.014-1.099-0.014c-56.342,0-102.016,45.674-102.016,102.016
	s45.674,102.016,102.016,102.016c0.368,0,0.732-0.01,1.099-0.014V155.124z"/>
<path style="fill:#ACACB2;" d="M251.485,308.473c-19.029-0.635-34.57-10.466-34.57-20.615c0-5.392,4.757-13.32,10.783-13.32
	c6.66,0,12.052,9.356,23.787,11.417v-25.69c-14.59-5.55-31.716-12.369-31.716-32.667c0-20.139,14.906-29.813,31.716-32.191v-4.44
	c0-2.219,2.538-4.282,6.025-4.282c3.013,0,6.025,2.061,6.025,4.282v3.964c9.832,0.317,28.386,2.854,28.386,13.796
	c0,4.282-2.855,13.004-9.832,13.004c-5.233,0-8.246-5.074-18.554-5.867v23.153c14.431,5.392,31.24,12.845,31.24,34.252
	c0,19.663-12.686,31.556-31.24,34.57v4.599c0,2.219-3.013,4.282-6.025,4.282c-3.489,0-6.025-2.061-6.025-4.282v-3.964H251.485z
	 M253.07,235.212v-18.871c-7.137,1.428-10.149,5.074-10.149,8.88C242.921,229.819,247.044,232.674,253.07,235.212z M261.95,264.548
	v21.25c5.392-1.268,9.673-4.282,9.673-9.991C271.623,270.574,267.659,267.244,261.95,264.548z"/>
<path style="fill:#235559;" d="M485.645,134.116v243.768H26.355V134.116H485.645 M495.528,107.762H16.472
	C7.375,107.762,0,115.136,0,124.233v263.534c0,9.097,7.375,16.472,16.472,16.472h479.057c9.097,0,16.472-7.375,16.472-16.472
	V124.233C512,115.135,504.626,107.762,495.528,107.762L495.528,107.762z"/>
<path style="fill:#38979E;" d="M0,124.233v263.534c0,9.097,7.375,16.472,16.472,16.472h240.627v-26.355H26.355V134.116h230.744
	v-26.355H16.472C7.375,107.762,0,115.135,0,124.233z"/>
<path style="fill:#FFFFFF;" d="M257.1,186.717c-3.269,0.158-5.615,2.122-5.615,4.251v4.44c-16.81,2.379-31.716,12.052-31.716,32.191
	c0,20.297,17.126,27.117,31.716,32.667v25.69c-11.736-2.061-17.127-11.417-23.787-11.417c-6.026,0-10.783,7.928-10.783,13.32
	c0,10.149,15.54,19.981,34.57,20.615v3.964c0,2.129,2.344,4.093,5.615,4.251V186.717H257.1z M242.921,225.22
	c0-3.806,3.013-7.453,10.149-8.88v18.871C247.044,232.674,242.921,229.819,242.921,225.22z"/>
</svg>