<?xml version="1.0" encoding="iso-8859-1"?>
<!-- Uploaded to: SVG Repo, www.svgrepo.com, Generator: SVG Repo Mixer Tools -->
<svg version="1.1" id="Layer_1" xmlns="http://www.w3.org/2000/svg" xmlns:xlink="http://www.w3.org/1999/xlink" 
	 viewBox="0 0 512 512" xml:space="preserve">
<rect x="21.59" y="194.313" style="fill:#EDEDED;" width="468.819" height="234.41"/>
<rect x="441.06" y="194.313" style="fill:#D8D8DA;" width="49.349" height="234.41"/>
<rect x="231.325" y="293.012" style="fill:#D1E5F5;" width="209.735" height="86.361"/>
<polygon style="fill:#B4D8F1;" points="268.337,293.012 354.699,379.374 441.06,379.374 441.06,293.012 "/>
<polygon style="fill:#80CB93;" points="502.747,157.301 490.41,169.639 21.59,169.639 9.253,157.301 83.277,83.277 428.723,83.277 
	"/>
<polygon style="fill:#6DC180;" points="428.723,83.277 404.048,83.277 478.072,157.301 465.735,169.639 490.41,169.639 
	502.747,157.301 "/>
<path style="fill:#95D5A7;" d="M9.253,194.313C9.253,228.382,36.871,256,70.94,256s61.687-27.618,61.687-61.687
	c0,34.068,27.618,61.687,61.687,61.687S256,228.382,256,194.313C256,228.382,283.618,256,317.687,256s61.687-27.618,61.687-61.687
	c0,34.068,27.618,61.687,61.687,61.687s61.687-27.618,61.687-61.687v-37.012H9.253V194.313z"/>
<g>
	<path style="fill:#80CB93;" d="M478.072,157.301v37.012c0,29.843-21.193,54.735-49.349,60.451
		c3.986,0.809,8.112,1.236,12.337,1.236c34.068,0,61.687-27.618,61.687-61.687v-37.012H478.072z"/>
	<path style="fill:#80CB93;" d="M305.349,254.764c3.986,0.809,8.112,1.236,12.337,1.236c34.068,0,61.687-27.618,61.687-61.687
		h-13.371c-6.058,0-11.162,4.409-12.174,10.382C349.575,229.789,330.167,249.725,305.349,254.764z"/>
	<path style="fill:#80CB93;" d="M181.976,254.764c3.986,0.809,8.112,1.236,12.337,1.236C228.382,256,256,228.382,256,194.313
		h-13.371c-6.058,0-11.162,4.409-12.174,10.382C226.202,229.789,206.794,249.725,181.976,254.764z"/>
	<path style="fill:#80CB93;" d="M58.602,254.764C62.589,255.573,66.714,256,70.94,256c34.068,0,61.687-27.618,61.687-61.687h-13.371
		c-6.058,0-11.162,4.409-12.174,10.382C102.828,229.789,83.42,249.725,58.602,254.764z"/>
</g>
<rect x="70.94" y="293.012" style="fill:#E07188;" width="111.036" height="135.711"/>
<g>
	<rect x="144.964" y="293.012" style="fill:#DC4161;" width="37.012" height="135.711"/>
	<path style="fill:#DC4161;" d="M107.952,376.289c-5.11,0-9.253-4.142-9.253-9.253v-12.337c0-5.111,4.143-9.253,9.253-9.253
		c5.11,0,9.253,4.142,9.253,9.253v12.337C117.205,372.148,113.062,376.289,107.952,376.289z"/>
</g>
<g>
	<path style="fill:#2E2D31;" d="M512,194.313v-37.012c0-2.554-1.035-4.866-2.708-6.54c-0.001-0.001-0.001-0.002-0.003-0.004
		l-74.024-74.024c-1.735-1.735-4.089-2.709-6.542-2.709H181.975c-5.11,0-9.253,4.142-9.253,9.253c0,5.111,4.143,9.253,9.253,9.253
		H424.89l55.518,55.518H31.591L87.109,92.53h57.855c5.11,0,9.253-4.142,9.253-9.253c0-5.111-4.143-9.253-9.253-9.253H83.277
		c-2.454,0-4.808,0.975-6.542,2.709L2.711,150.757c-0.001,0.001-0.001,0.001-0.001,0.002C1.035,152.434,0,154.746,0,157.301v37.012
		c0,14.796,4.559,28.544,12.337,39.925v194.485c0,5.111,4.143,9.253,9.253,9.253H490.41c5.11,0,9.253-4.142,9.253-9.253V280.675
		c0-5.111-4.143-9.253-9.253-9.253c-5.11,0-9.253,4.142-9.253,9.253V419.47H191.229V293.012c0-5.111-4.143-9.253-9.253-9.253H70.94
		c-5.11,0-9.253,4.142-9.253,9.253V419.47H30.843V252.794c11.415,7.851,25.225,12.459,40.096,12.459
		c26.396,0,49.47-14.49,61.687-35.935c12.216,21.445,35.291,35.935,61.687,35.935s49.47-14.49,61.687-35.935
		c12.216,21.445,35.291,35.935,61.687,35.935s49.47-14.49,61.687-35.935c12.216,21.445,35.291,35.935,61.687,35.935
		C480.177,265.253,512,233.43,512,194.313z M80.193,302.265h92.53V419.47h-92.53V302.265z M441.06,246.747
		c-28.913,0-52.434-23.521-52.434-52.434c0-5.111-4.143-9.253-9.253-9.253s-9.253,4.142-9.253,9.253
		c0,28.913-23.521,52.434-52.434,52.434c-28.913,0-52.434-23.521-52.434-52.434c0-5.111-4.143-9.253-9.253-9.253
		c-5.11,0-9.253,4.142-9.253,9.253c0,28.913-23.521,52.434-52.434,52.434s-52.434-23.521-52.434-52.434
		c0-5.111-4.143-9.253-9.253-9.253c-5.11,0-9.253,4.142-9.253,9.253c0,28.913-23.521,52.434-52.434,52.434
		s-52.434-23.521-52.434-52.434v-27.759h474.988v27.759C493.494,223.226,469.973,246.747,441.06,246.747z"/>
	<path style="fill:#2E2D31;" d="M268.336,370.12c-5.11,0-9.253,4.142-9.253,9.253s4.143,9.253,9.253,9.253H441.06
		c5.11,0,9.253-4.142,9.253-9.253v-86.361c0-5.111-4.143-9.253-9.253-9.253H231.325c-5.11,0-9.253,4.142-9.253,9.253v86.361
		c0,5.111,4.143,9.253,9.253,9.253c5.11,0,9.253-4.142,9.253-9.253v-77.108h191.229v67.855H268.336z"/>
</g>
</svg>