<?xml version="1.0" standalone="no"?><svg xmlns="http://www.w3.org/2000/svg" viewBox="0 0 1440 320"><path fill="#177E39" fill-opacity="1" d="M0,192L26.7,160C53.3,128,107,64,160,80C213.3,96,267,192,320,208C373.3,224,427,160,480,138.7C533.3,117,587,139,640,165.3C693.3,192,747,224,800,218.7C853.3,213,907,171,960,170.7C1013.3,171,1067,213,1120,240C1173.3,267,1227,277,1280,250.7C1333.3,224,1387,160,1413,128L1440,96L1440,320L1413.3,320C1386.7,320,1333,320,1280,320C1226.7,320,1173,320,1120,320C1066.7,320,1013,320,960,320C906.7,320,853,320,800,320C746.7,320,693,320,640,320C586.7,320,533,320,480,320C426.7,320,373,320,320,320C266.7,320,213,320,160,320C106.7,320,53,320,27,320L0,320Z"></path></svg>